<?xml version="1.0" encoding="iso-8859-1"?>
<!-- Generator: Adobe Illustrator 19.0.0, SVG Export Plug-In . SVG Version: 6.00 Build 0)  -->
<svg version="1.1" id="Layer_1" xmlns="http://www.w3.org/2000/svg" xmlns:xlink="http://www.w3.org/1999/xlink" x="0px" y="0px"
	 viewBox="0 0 512 512" style="enable-background:new 0 0 512 512;" xml:space="preserve">
<path style="fill:#FFEA33;" d="M338.431,295.151c-5.477-5.478-5.479-14.361,0-19.842l47.951-47.951
	c5.482-5.478,14.363-5.478,19.843,0l0,0c5.48,5.479,5.48,14.364,0.001,19.842l-47.951,47.951
	C352.795,300.631,343.912,300.631,338.431,295.151L338.431,295.151z"/>
<circle style="fill:#F96300;" cx="406.246" cy="284.651" r="32.153"/>
<path style="fill:#7CB56B;" d="M466.968,294.812c1.851,1.852,2.996,4.408,2.996,7.233v66.492c0,4.138-2.492,7.868-6.314,9.45
	c-3.822,1.585-8.223,0.708-11.149-2.216l-66.491-66.492c-2.926-2.926-3.802-7.327-2.217-11.148c1.583-3.822,5.311-6.315,9.45-6.314
	h66.492C462.56,291.815,465.117,292.96,466.968,294.812z"/>
<path style="fill:#FFEA33;" d="M303.937,203.386c0,7.749-6.282,14.031-14.03,14.031h-67.814c-7.748,0-14.031-6.282-14.031-14.031
	l0,0c0-7.749,6.283-14.03,14.031-14.03h67.814C297.655,189.355,303.937,195.637,303.937,203.386L303.937,203.386z"/>
<path style="fill:#7CB56B;" d="M363.21,212.219c2.453,0.915,4.557,2.767,5.729,5.335l27.61,60.489c1.718,3.764,1,8.191-1.82,11.219
	c-2.819,3.028-7.187,4.058-11.062,2.613l-88.1-32.88c-3.874-1.446-6.499-5.086-6.645-9.221c-0.147-4.135,2.209-7.951,5.976-9.669
	l60.489-27.609C357.956,211.323,360.758,211.303,363.21,212.219z"/>
<path style="fill:#FFEE60;" d="M261.846,230.278c0,7.748-6.283,14.03-14.031,14.03h-67.813c-7.749,0-14.031-6.282-14.031-14.03l0,0
	c0-7.749,6.282-14.031,14.031-14.031h67.813C255.563,216.247,261.846,222.529,261.846,230.278L261.846,230.278z"/>
<path style="fill:#7CB56B;" d="M35.856,306.504c-1.851,1.852-2.996,4.408-2.996,7.233v66.492c0,4.138,2.492,7.868,6.314,9.451
	c3.822,1.584,8.223,0.707,11.149-2.217l66.491-66.492c2.926-2.925,3.802-7.326,2.217-11.148c-1.583-3.822-5.311-6.315-9.45-6.315
	H43.09C40.265,303.506,37.707,304.653,35.856,306.504z"/>
<path style="fill:#FFE060;" d="M163.031,306.857c-5.478,5.478-14.362,5.479-19.843,0l-47.951-47.951
	c-5.478-5.48-5.478-14.363,0-19.843l0,0c5.479-5.48,14.364-5.48,19.843,0l47.951,47.951
	C168.511,292.494,168.511,301.378,163.031,306.857L163.031,306.857z"/>
<g>
	<circle style="fill:#E23B3B;" cx="41.159" cy="384.031" r="18.707"/>
	<circle style="fill:#E23B3B;" cx="34.732" cy="439.568" r="17.539"/>
	<circle style="fill:#E23B3B;" cx="477.268" cy="439.568" r="17.538"/>
	<circle style="fill:#E23B3B;" cx="470.841" cy="384.031" r="18.707"/>
</g>
<path style="fill:#F96300;" d="M350.878,86.91c0.868-0.868,2.278-0.868,3.147,0c13.965,13.966,13.965,36.691,0,50.657
	c-13.965,13.965-36.691,13.965-50.656,0c-0.868-0.869-0.869-2.278,0-3.147L350.878,86.91z"/>
<g>
	<circle style="fill:#C14616;" cx="176.494" cy="139.076" r="18.707"/>
	<circle style="fill:#C14616;" cx="405.42" cy="169.273" r="14.469"/>
	<circle style="fill:#C14616;" cx="278.215" cy="61.91" r="18.708"/>
</g>
<path style="fill:#FFBE60;" d="M330.828,230.278c0,7.749-6.282,14.031-14.031,14.031h-67.813c-7.748,0-14.031-6.282-14.031-14.031
	l0,0c0-7.749,6.283-14.031,14.031-14.031h67.813C324.547,216.247,330.828,222.529,330.828,230.278L330.828,230.278z"/>
<circle style="fill:#F96300;" cx="96.58" cy="296.343" r="32.153"/>
<path style="fill:#7CB56B;" d="M139.614,223.911c-2.453,0.915-4.557,2.767-5.729,5.335l-27.61,60.489
	c-1.718,3.764-1,8.191,1.82,11.218c2.819,3.029,7.187,4.058,11.062,2.613l88.098-32.879c3.876-1.447,6.5-5.086,6.646-9.221
	c0.147-4.135-2.209-7.951-5.976-9.669l-60.489-27.609C144.869,223.016,142.066,222.995,139.614,223.911z"/>
<path d="M155.091,290.157l2.399,2.399c2.415,2.415,2.415,6.346,0,8.76c-1.169,1.169-2.724,1.814-4.379,1.814
	s-3.211-0.645-4.38-1.814l-6.398-6.398l-16.142,6.024l11.457,11.457c4.13,4.129,9.622,6.403,15.463,6.403s11.332-2.275,15.462-6.405
	c7.653-7.655,8.412-19.605,2.325-28.141L155.091,290.157z"/>
<g>
	<circle style="fill:#F96300;" cx="483.704" cy="413.257" r="20.461"/>
	<circle style="fill:#F96300;" cx="28.296" cy="413.257" r="20.461"/>
</g>
<path style="fill:#FFE060;" d="M60.018,468.794c-10.095,0-18.309-8.213-18.309-18.308V419.9
	c0-100.045,81.392-181.438,181.438-181.438h65.706c100.046,0,181.438,81.393,181.438,181.438v30.587
	c0,10.095-8.214,18.308-18.31,18.308H60.018z"/>
<path style="opacity:0.1;enable-background:new    ;" d="M85.508,450.487V419.9c0-100.045,81.392-181.438,181.438-181.438h-43.799
	c-100.046,0-181.438,81.393-181.438,181.438v30.587c0,10.095,8.214,18.308,18.309,18.308h43.799
	C93.722,468.794,85.508,460.582,85.508,450.487z"/>
<path d="M297.826,143.108c8.235,8.235,19.198,12.77,30.87,12.77c11.672,0,22.635-4.535,30.869-12.77
	c17.02-17.021,17.02-44.716-0.004-61.742c-1.9-1.898-4.425-2.942-7.112-2.942c-2.686,0-5.213,1.046-7.116,2.947l-47.507,47.507
	C293.904,132.798,293.903,139.182,297.826,143.108z M352.051,96.82c7.173,10.859,5.984,25.653-3.568,35.206
	c-5.274,5.274-12.301,8.178-19.786,8.178c-5.573,0-10.892-1.609-15.422-4.608L352.051,96.82z"/>
<path d="M176.494,165.624c14.637,0,26.544-11.908,26.544-26.544s-11.907-26.545-26.544-26.545
	c-14.637,0-26.544,11.908-26.544,26.544S161.857,165.624,176.494,165.624z M176.494,128.209c5.994,0,10.87,4.877,10.87,10.87
	s-4.877,10.87-10.87,10.87s-10.87-4.877-10.87-10.87S170.5,128.209,176.494,128.209z"/>
<path d="M405.58,191.579c12.299,0,22.305-10.006,22.305-22.305c0-12.299-10.006-22.305-22.305-22.305
	c-12.299,0-22.306,10.006-22.306,22.305C383.275,181.573,393.281,191.579,405.58,191.579z M405.58,162.641
	c3.657,0,6.632,2.975,6.632,6.632c0,3.657-2.975,6.632-6.632,6.632c-3.657,0-6.633-2.975-6.633-6.632
	C398.947,165.616,401.923,162.641,405.58,162.641z"/>
<path d="M278.886,88.456c14.637,0,26.545-11.908,26.545-26.544s-11.908-26.544-26.545-26.544c-14.637,0-26.544,11.908-26.544,26.544
	C252.343,76.548,264.249,88.456,278.886,88.456z M278.886,51.042c5.995,0,10.871,4.877,10.871,10.87s-4.877,10.87-10.871,10.87
	c-5.994,0-10.87-4.877-10.87-10.87S272.893,51.042,278.886,51.042z"/>
<path d="M123.296,393.144c-11.091,0-20.114,9.023-20.114,20.113c0,4.328,3.508,7.837,7.837,7.837s7.837-3.509,7.837-7.837
	c0-2.448,1.992-4.44,4.441-4.44c2.448,0,4.44,1.992,4.44,4.44c0,4.328,3.508,7.837,7.837,7.837c4.329,0,7.837-3.509,7.837-7.837
	C143.409,402.167,134.386,393.144,123.296,393.144z"/>
<path d="M212.392,413.257c0-2.448,1.992-4.44,4.44-4.44c2.448,0,4.44,1.992,4.44,4.44c0,4.328,3.508,7.837,7.837,7.837
	c4.329,0,7.837-3.509,7.837-7.837c0-11.091-9.023-20.113-20.113-20.113c-11.091,0-20.113,9.023-20.113,20.113
	c0,4.328,3.508,7.837,7.837,7.837C208.883,421.094,212.392,417.585,212.392,413.257z"/>
<path d="M166.793,359.474c0-2.448,1.992-4.44,4.44-4.44s4.44,1.992,4.44,4.44c0,4.328,3.508,7.837,7.837,7.837
	c4.329,0,7.837-3.509,7.837-7.837c0-11.091-9.023-20.113-20.113-20.113s-20.113,9.023-20.113,20.113
	c0,4.328,3.508,7.837,7.837,7.837S166.793,363.802,166.793,359.474z"/>
<path d="M314.112,320.306c0-2.448,1.992-4.44,4.44-4.44s4.44,1.992,4.44,4.44c0,4.328,3.508,7.837,7.837,7.837
	c4.329,0,7.837-3.509,7.837-7.837c0-11.091-9.023-20.113-20.113-20.113s-20.113,9.023-20.113,20.113
	c0,4.328,3.508,7.837,7.837,7.837S314.112,324.634,314.112,320.306z"/>
<path d="M374.911,370.581c0-2.448,1.992-4.44,4.44-4.44s4.44,1.992,4.44,4.44c0,4.328,3.508,7.837,7.837,7.837
	c4.329,0,7.837-3.509,7.837-7.837c0-11.091-9.023-20.113-20.113-20.113c-11.091,0-20.113,9.023-20.113,20.113
	c0,4.328,3.508,7.837,7.837,7.837C371.403,378.418,374.911,374.909,374.911,370.581z"/>
<path d="M512,413.258c0-10.786-6.07-20.181-14.97-24.953c0.228-1.393,0.355-2.819,0.355-4.276c0-12.228-8.313-22.546-19.583-25.611
	v-56.372c0-4.823-1.879-9.359-5.291-12.775c-3.414-3.413-7.95-5.291-12.776-5.291h-13.519
	c-0.302-18.256-12.894-33.574-29.844-38.017c1.171-2.706,1.799-5.643,1.799-8.682c0-5.841-2.276-11.333-6.406-15.462
	c-4.13-4.129-9.621-6.404-15.461-6.404c-5.84,0-11.332,2.274-15.464,6.404l-0.92,0.92l-3.852-8.435
	c-2.003-4.389-5.595-7.735-10.118-9.424c-4.472-1.671-9.469-1.497-13.819,0.49l-20.158,9.201c-3.937-3.804-9.283-6.159-15.177-6.159
	h-5.622c0.386-1.613,0.597-3.294,0.597-5.025c0-12.058-9.81-21.867-21.867-21.867H222.09c-12.058,0-21.868,9.809-21.868,21.867
	c0,1.731,0.211,3.412,0.597,5.025h-20.821c-8.873,0-16.5,5.323-19.917,12.936l-9.393-4.287c-4.352-1.986-9.349-2.16-13.819-0.49
	c-4.521,1.689-8.116,5.034-10.119,9.423l-4.282,9.381l-1.851-1.851c-4.129-4.13-9.621-6.405-15.462-6.405
	c-5.842,0-11.334,2.275-15.464,6.406c-6.604,6.606-8.069,16.414-4.437,24.466c-16.348,4.836-28.36,19.854-28.653,37.679H43.09
	c-4.826,0-9.363,1.88-12.778,5.294c-3.411,3.414-5.289,7.95-5.289,12.772v49.236c-6.323,4.857-10.408,12.487-10.408,21.056
	c0,1.457,0.127,2.883,0.355,4.276C6.07,393.077,0,402.471,0,413.258c0,8.552,3.819,16.224,9.835,21.417
	c-0.311,1.583-0.482,3.216-0.482,4.889c0,13.992,11.383,25.375,25.375,25.375c1.143,0,2.264-0.085,3.368-0.232
	c4.668,7.169,12.747,11.923,21.922,11.923h53.876c4.329,0,7.837-3.509,7.837-7.837c0-4.328-3.508-7.837-7.837-7.837H60.018
	c-5.774,0-10.472-4.698-10.472-10.471V419.9c0-95.724,77.877-173.601,173.601-173.601h65.706
	c95.723,0,173.601,77.877,173.601,173.601v30.587c0,5.774-4.698,10.471-10.473,10.471H150.465c-4.329,0-7.837,3.509-7.837,7.837
	c0,4.328,3.508,7.837,7.837,7.837h301.516c9.175,0,17.255-4.754,21.922-11.923c1.103,0.147,2.225,0.232,3.368,0.232
	c13.992,0,25.374-11.383,25.374-25.375c0-1.673-0.17-3.306-0.482-4.889C508.181,429.483,512,421.811,512,413.258z M33.872,449.228
	c-4.342-0.381-7.867-3.636-8.67-7.845c1.018,0.111,2.049,0.172,3.095,0.172c1.909,0,3.771-0.199,5.575-0.564V449.228z M33.872,419.9
	v4.668c-1.683,0.834-3.573,1.314-5.575,1.314c-6.961,0-12.624-5.663-12.624-12.624s5.663-12.624,12.624-12.624
	c2.333,0,4.514,0.648,6.392,1.756C34.158,408.158,33.872,413.996,33.872,419.9z M36.858,386.312
	c-2.08-0.665-4.259-1.109-6.518-1.271c-0.03-0.334-0.051-0.672-0.051-1.014c0-5.495,4.102-10.039,9.402-10.759
	C38.6,377.561,37.65,381.909,36.858,386.312z M40.697,357.496v-43.759c0.137-1.458,0.935-2.256,2.393-2.393h16.435
	c1.033,2.544,2.325,4.957,3.836,7.209c-7.75,12.175-14.141,25.293-18.972,39.136C43.329,357.558,40.851,357.493,40.697,357.496z
	 M73.549,304.085c-0.822-2.436-1.284-5.036-1.284-7.747c0-13.408,10.908-24.317,24.316-24.317c2.506,0,4.915,0.402,7.192,1.111
	C92.564,282.267,82.418,292.655,73.549,304.085z M111.565,259.271c-2.242-0.91-4.581-1.629-7.002-2.122l-3.784-3.784
	c-2.415-2.415-2.415-6.346,0-8.76c1.169-1.17,2.725-1.815,4.38-1.815c1.654,0,3.209,0.645,4.378,1.814l5.987,5.987L111.565,259.271z
	 M130.888,254.687l10.126-22.186c0.552-1.209,2.025-1.705,3.169-1.183l19.481,8.892
	C152.218,244.008,141.255,248.875,130.888,254.687z M222.093,197.192h67.814c3.415,0,6.193,2.778,6.193,6.193
	c0,2.069-1.024,3.899-2.586,5.025h-44.529c-0.142,0-0.279,0.019-0.419,0.022c-0.25-0.008-0.498-0.022-0.75-0.022h-29.33
	c-1.562-1.125-2.586-2.956-2.586-5.025C215.899,199.97,218.677,197.192,222.093,197.192z M227.131,230.625h-3.984
	c-12.104,0-23.942,1.156-35.42,3.338l-13.416-6.124c0.949-2.206,3.142-3.755,5.692-3.755h48.022
	c-0.582,1.965-0.907,4.042-0.907,6.194C227.117,230.395,227.128,230.509,227.131,230.625z M322.051,233.543
	c-10.781-1.915-21.875-2.917-33.197-2.917h-46.044c-0.006-0.116-0.018-0.23-0.018-0.348c0-3.415,2.778-6.194,6.194-6.194h67.813
	c3.416,0,6.194,2.778,6.194,6.194C322.992,231.476,322.644,232.593,322.051,233.543z M338.59,228.777l20.053-9.152
	c1.144-0.523,2.617-0.021,3.167,1.184l14.204,31.118c-12.106-6.307-24.973-11.341-38.427-14.93
	C338.275,234.877,338.721,231.619,338.59,228.777z M391.265,247.593l-4.398-9.636l5.054-5.055c1.171-1.17,2.727-1.815,4.382-1.815
	c1.654,0,3.209,0.644,4.379,1.814c1.17,1.169,1.814,2.725,1.814,4.379c0,1.654-0.644,3.209-1.814,4.379l-4.239,4.239
	C394.668,246.348,392.939,246.912,391.265,247.593z M420.429,283.978c-6.379-6.177-13.191-11.908-20.383-17.148l-2.27-4.971
	c2.638-0.984,5.488-1.531,8.466-1.531c13.185,0,23.944,10.549,24.3,23.649H420.429z M462.128,343.78
	c-7.048-15.983-16.235-30.818-27.211-44.128h24.818c0.862,0,1.43,0.439,1.69,0.699c0.262,0.262,0.703,0.832,0.703,1.694
	L462.128,343.78L462.128,343.78z M475.142,386.312c-0.792-4.403-1.742-8.751-2.833-13.043c5.3,0.72,9.402,5.264,9.402,10.759
	c0,0.343-0.021,0.679-0.051,1.014C479.401,385.204,477.223,385.648,475.142,386.312z M478.128,449.228v-8.237
	c1.803,0.366,3.665,0.564,5.575,0.564c1.046,0,2.076-0.062,3.094-0.172C485.992,445.593,482.467,448.846,478.128,449.228z
	 M483.702,425.883c-2.002,0-3.891-0.481-5.575-1.314v-4.668c0-5.904-0.285-11.742-0.817-17.509c1.878-1.109,4.058-1.756,6.392-1.756
	c6.961,0,12.624,5.663,12.624,12.624C496.327,420.219,490.663,425.883,483.702,425.883z"/>
<g>
</g>
<g>
</g>
<g>
</g>
<g>
</g>
<g>
</g>
<g>
</g>
<g>
</g>
<g>
</g>
<g>
</g>
<g>
</g>
<g>
</g>
<g>
</g>
<g>
</g>
<g>
</g>
<g>
</g>
</svg>
